<?xml version="1.0" standalone="no"?><!-- Generator: Gravit.io --><svg xmlns="http://www.w3.org/2000/svg" xmlns:xlink="http://www.w3.org/1999/xlink" style="isolation:isolate" viewBox="0 0 800 500" width="800" height="500"><defs><clipPath id="_clipPath_7g3f4qRsbt3aB9Wfc6vvou1dYXq3H3hX"><rect width="800" height="500"/></clipPath></defs><g clip-path="url(#_clipPath_7g3f4qRsbt3aB9Wfc6vvou1dYXq3H3hX)"><rect width="800" height="500" style="fill:rgb(132,114,114)" fill-opacity="0"/><path d=" M 500 120 C 499.099 187.933 499.109 261.277 500 380 C 500 395.278 486.111 410 470 410 Q 407.558 410 330 410 C 315 410 300 395.833 300 380 Q 300 270.726 300 120 C 300 104.167 315 90 330 90 Q 392.442 90 470 90 C 485 90 500 104.167 500 120 Z " fill="rgb(95,61,174)"/><path d=" M 468.25 113 C 473.665 113 477 117.061 477 122.091 L 477 203.909 C 477 208.939 473.45 213 468.25 213 L 345.75 213 C 340.694 213 337 208.939 337 203.909 L 337 122.091 C 337 117.732 340.586 113 345.75 113 L 468.25 113 Z " fill="rgb(144,106,219)"/><path d=" M 342 307 C 342 273.885 368.885 247 402 247 C 435.115 247 462 273.885 462 307 C 462 340.115 435.115 367 402 367 C 368.885 367 342 340.115 342 307 Z  M 382 307 C 382 295.962 390.962 287 402 287 C 413.038 287 422 295.962 422 307 C 422 318.038 413.038 327 402 327 C 390.962 327 382 318.038 382 307 Z " fill-rule="evenodd" fill="rgb(144,106,219)"/><path d=" M 530 100 C 530 94.312 534.33 90 540 90 L 570 90 C 576.048 90 580 95.203 580 100 L 580 310 L 630 310 L 630 270 C 630 264.215 634.792 260 640 260 L 670 260 C 676.154 260 680 264.572 680 270 L 680 310 L 720 310 C 726.073 310 730 314.224 730 320 L 730 350 C 730 355.585 725.538 360 720 360 L 680 360 L 680 400 C 680 405.504 676.243 410 670 410 L 640 410 C 634.703 410 630 405.504 630 400 L 630 360 L 540 360 C 533.973 360 530 355.585 530 350 L 530 100 Z " fill="rgb(95,61,174)"/><path d=" M 70 100 C 70 94.312 74.33 90 80 90 L 110 90 C 116.048 90 120 95.203 120 100 L 120 310 L 170 310 L 170 270 C 170 264.215 174.792 260 180 260 L 210 260 C 216.154 260 220 264.572 220 270 L 220 310 L 260 310 C 266.073 310 270 314.224 270 320 L 270 350 C 270 355.585 265.538 360 260 360 L 220 360 L 220 400 C 220 405.504 216.243 410 210 410 L 180 410 C 174.703 410 170 405.504 170 400 L 170 360 L 80 360 C 73.973 360 70 355.585 70 350 L 70 100 Z " fill="rgb(95,61,174)"/><g><path d=" M 507 113 C 506.099 180.933 506.109 254.277 507 373 C 507 388.278 493.111 403 477 403 Q 414.558 403 337 403 C 322 403 307 388.833 307 373 Q 307 263.726 307 113 C 307 97.167 322 83 337 83 Q 399.442 83 477 83 C 492 83 507 97.167 507 113 Z " fill="none" vector-effect="non-scaling-stroke" stroke-width="5" stroke="rgb(20,0,120)" stroke-linejoin="miter" stroke-linecap="square" stroke-miterlimit="3"/><path d=" M 468.25 113 C 473.665 113 477 117.061 477 122.091 L 477 203.909 C 477 208.939 473.45 213 468.25 213 L 345.75 213 C 340.694 213 337 208.939 337 203.909 L 337 122.091 C 337 117.732 340.586 113 345.75 113 L 468.25 113 Z " fill="none" vector-effect="non-scaling-stroke" stroke-width="5" stroke="rgb(20,0,120)" stroke-linejoin="miter" stroke-linecap="square" stroke-miterlimit="3"/><circle vector-effect="non-scaling-stroke" cx="406.0000000000001" cy="303.9999999999999" r="60" fill="none" stroke-width="5" stroke="rgb(20,0,120)" stroke-linejoin="miter" stroke-linecap="square" stroke-miterlimit="3"/><circle vector-effect="non-scaling-stroke" cx="405.9999999999999" cy="303.9999999999999" r="20" fill="none" stroke-width="5" stroke="rgb(20,0,120)" stroke-linejoin="miter" stroke-linecap="square" stroke-miterlimit="3"/><path d=" M 387.95 267.994 C 388.237 267.994 388.457 267.9 388.637 267.718 C 388.807 267.539 388.897 267.263 388.897 266.878 L 388.897 260.212 L 390.482 266.376 C 390.543 266.568 390.587 266.771 390.64 266.956 C 390.701 267.144 390.766 267.31 390.859 267.467 C 390.949 267.611 391.082 267.749 391.234 267.849 C 391.407 267.946 391.608 267.987 391.844 267.987 C 392.153 267.987 392.4 267.908 392.57 267.761 C 392.756 267.611 392.872 267.435 392.946 267.245 C 393.01 267.06 393.098 266.771 393.194 266.364 L 394.791 260.212 L 394.791 266.878 C 394.791 267.251 394.88 267.526 395.051 267.711 C 395.22 267.899 395.444 267.987 395.716 267.987 C 396.001 267.987 396.224 267.9 396.401 267.711 C 396.561 267.526 396.648 267.25 396.648 266.878 L 396.648 259.24 C 396.648 258.82 396.533 258.532 396.313 258.378 C 396.078 258.239 395.781 258.162 395.394 258.162 L 394.76 258.162 C 394.391 258.162 394.12 258.196 393.943 258.262 C 393.769 258.328 393.642 258.45 393.568 258.616 C 393.479 258.792 393.384 259.074 393.283 259.456 L 391.832 264.743 L 390.381 259.456 C 390.266 259.082 390.181 258.798 390.096 258.616 C 390.018 258.456 389.896 258.328 389.72 258.262 C 389.547 258.196 389.275 258.162 388.889 258.162 L 388.268 258.162 C 387.882 258.162 387.579 258.24 387.35 258.378 C 387.115 258.531 387 258.819 387 259.24 L 387 266.878 C 387 267.263 387.102 267.526 387.261 267.711 C 387.458 267.909 387.677 267.994 387.95 267.994 Z " fill="rgb(20,0,120)"/><path d=" M 399.955 267.84 L 405.451 267.84 C 405.762 267.84 406.009 267.756 406.167 267.625 C 406.313 267.474 406.403 267.288 406.403 267.06 C 406.403 266.831 406.312 266.64 406.167 266.495 C 406.01 266.351 405.762 266.279 405.451 266.279 L 400.735 266.279 L 400.735 263.534 L 404.932 263.534 C 405.241 263.534 405.464 263.462 405.623 263.323 C 405.769 263.186 405.845 263.007 405.845 262.778 C 405.845 262.568 405.769 262.394 405.61 262.252 C 405.464 262.124 405.229 262.058 404.932 262.058 L 400.735 262.058 L 400.735 259.685 L 405.294 259.685 C 405.616 259.685 405.85 259.613 406.009 259.481 C 406.166 259.337 406.244 259.156 406.244 258.93 C 406.244 258.701 406.167 258.516 406.009 258.378 C 405.851 258.247 405.616 258.174 405.294 258.174 L 399.955 258.174 C 399.67 258.174 399.434 258.215 399.254 258.3 C 399.07 258.378 398.943 258.51 398.847 258.688 C 398.759 258.87 398.721 259.096 398.721 259.372 L 398.721 266.639 C 398.721 267.059 398.823 267.357 399.006 267.551 C 399.203 267.736 399.512 267.84 399.955 267.84 Z " fill="rgb(20,0,120)"/><path d=" M 408.983 267.994 C 409.257 267.994 409.488 267.9 409.661 267.711 C 409.831 267.527 409.922 267.245 409.922 266.868 L 409.922 261.209 L 413.71 266.844 C 413.837 266.994 413.933 267.145 414.048 267.288 C 414.163 267.435 414.271 267.565 414.398 267.671 C 414.53 267.79 414.669 267.862 414.802 267.909 C 414.948 267.959 415.113 267.988 415.293 267.988 C 416.025 267.988 416.39 267.565 416.39 266.719 L 416.39 259.121 C 416.39 258.743 416.297 258.473 416.144 258.282 C 415.969 258.091 415.746 258 415.448 258 C 415.161 258 414.953 258.091 414.785 258.282 C 414.611 258.467 414.536 258.743 414.536 259.121 L 414.536 264.873 L 410.648 259.169 C 410.535 259.016 410.441 258.846 410.34 258.69 C 410.238 258.545 410.142 258.414 410.03 258.32 C 409.929 258.223 409.82 258.15 409.692 258.091 C 409.566 258.031 409.407 258 409.223 258 C 409.003 258 408.78 258.066 408.579 258.188 C 408.38 258.32 408.241 258.473 408.157 258.667 C 408.084 258.846 408.043 259.097 408.043 259.41 L 408.043 266.868 C 408.043 267.232 408.132 267.508 408.302 267.702 C 408.475 267.9 408.696 267.994 408.983 267.994 Z " fill="rgb(20,0,120)"/><path d=" M 425.984 258.006 C 425.677 258.006 425.44 258.103 425.256 258.3 C 425.069 258.498 424.981 258.793 424.981 259.194 L 424.981 263.989 C 424.981 264.807 424.822 265.425 424.486 265.838 C 424.166 266.245 423.61 266.449 422.817 266.449 C 422.247 266.449 421.801 266.339 421.48 266.141 C 421.17 265.944 420.947 265.662 420.824 265.295 C 420.701 264.938 420.637 264.481 420.637 263.942 L 420.637 259.194 C 420.637 258.806 420.553 258.504 420.365 258.307 C 420.18 258.116 419.938 258.006 419.611 258.006 C 419.313 258.006 419.077 258.116 418.899 258.307 C 418.712 258.498 418.627 258.799 418.627 259.194 L 418.627 263.844 C 418.627 264.565 418.701 265.201 418.853 265.722 C 419.028 266.254 419.277 266.681 419.633 267.022 C 419.989 267.358 420.426 267.599 420.99 267.761 C 421.549 267.908 422.196 268 422.966 268 C 423.61 268 424.166 267.928 424.649 267.777 C 425.131 267.625 425.558 267.395 425.91 267.072 C 426.331 266.687 426.616 266.245 426.777 265.741 C 426.927 265.235 427 264.597 427 263.844 L 427 259.194 C 427 258.799 426.913 258.504 426.715 258.3 C 426.53 258.103 426.281 258.006 425.984 258.006 Z " fill="rgb(20,0,120)"/><path d=" M 444.837 298.932 L 444.837 300.872 L 439.225 297.654 C 437.992 296.951 437 297.529 437 298.933 L 437 307.074 C 437 308.492 437.992 309.065 439.225 308.362 L 444.837 305.141 L 444.837 307.075 C 444.837 308.493 445.839 309.066 447.061 308.363 L 453.528 304.639 L 453.528 306.89 C 453.528 308.297 454.32 309.442 455.268 309.442 C 456.214 309.442 457 308.297 457 306.89 L 457 299.119 C 457 297.709 456.215 296.558 455.268 296.558 C 454.307 296.558 453.528 297.708 453.528 299.119 L 453.528 301.361 L 447.061 297.644 C 445.834 296.95 444.837 297.528 444.837 298.932 Z " fill="rgb(20,0,120)"/><path d=" M 374.78 297.645 L 369.168 300.863 L 369.168 298.923 C 369.168 297.519 368.174 296.935 366.948 297.644 L 360.476 301.361 L 360.476 299.12 C 360.476 297.71 359.689 296.559 358.736 296.559 C 357.787 296.559 357 297.709 357 299.12 L 357 306.89 C 357 308.296 357.787 309.441 358.736 309.441 C 359.694 309.441 360.476 308.297 360.476 306.89 L 360.476 304.64 L 366.948 308.362 C 368.179 309.065 369.168 308.493 369.168 307.074 L 369.168 305.14 L 374.78 308.361 C 376.014 309.064 377 308.492 377 307.073 L 377 298.935 C 377 297.52 376.014 296.942 374.78 297.645 Z " fill="rgb(20,0,120)"/><path d=" M 406.012 340.52 L 399.144 336.591 C 397.958 335.905 397 336.465 397 337.82 L 397 345.679 C 397 347.05 397.958 347.608 399.144 346.925 L 406.012 342.984 C 407.202 342.304 407.202 341.205 406.012 340.52 Z " fill="rgb(20,0,120)"/><path d=" M 410.049 335.538 C 409.124 335.538 408.373 336.645 408.373 338.005 L 408.373 345.505 C 408.373 346.865 409.124 347.966 410.049 347.966 C 410.974 347.966 411.715 346.865 411.715 345.505 L 411.715 338.005 C 411.715 336.645 410.974 335.538 410.049 335.538 Z " fill="rgb(20,0,120)"/><path d=" M 415.324 335.538 C 414.41 335.538 413.655 336.645 413.655 338.005 L 413.655 345.505 C 413.655 346.865 414.409 347.966 415.324 347.966 C 416.249 347.966 417 346.865 417 345.505 L 417 338.005 C 417 336.645 416.249 335.538 415.324 335.538 Z " fill="rgb(20,0,120)"/><path d=" M 357 153 Q 357.275 133 367 133 Q 376.725 133 377 153" fill="none" vector-effect="non-scaling-stroke" stroke-width="5" stroke="rgb(20,0,120)" stroke-linejoin="miter" stroke-linecap="round" stroke-miterlimit="3"/><path d=" M 437 153 Q 437.275 133 447 133 Q 456.725 133 457 153" fill="none" vector-effect="non-scaling-stroke" stroke-width="5" stroke="rgb(20,0,120)" stroke-linejoin="miter" stroke-linecap="round" stroke-miterlimit="3"/><path d=" M 387 193 Q 387.55 173 407 173 Q 426.45 173 427 193" fill="none" vector-effect="non-scaling-stroke" stroke-width="5" stroke="rgb(20,0,120)" stroke-linejoin="miter" stroke-linecap="round" stroke-miterlimit="3"/><path d=" M 452 163 L 447 173 L 457 173 L 452 163 Z " fill="rgb(20,0,120)"/><path d=" M 362 163 L 357 173 L 367 173 L 362 163 Z " fill="rgb(20,0,120)"/></g><path d=" M 536 94 C 536 88.312 540.33 84 546 84 L 576 84 C 582.048 84 586 89.203 586 94 L 586 304 L 636 304 L 636 264 C 636 258.215 640.792 254 646 254 L 676 254 C 682.154 254 686 258.572 686 264 L 686 304 L 726 304 C 732.073 304 736 308.224 736 314 L 736 344 C 736 349.585 731.538 354 726 354 L 686 354 L 686 394 C 686 399.504 682.243 404 676 404 L 646 404 C 640.703 404 636 399.504 636 394 L 636 354 L 546 354 C 539.973 354 536 349.585 536 344 L 536 94 Z " fill="none" vector-effect="non-scaling-stroke" stroke-width="5" stroke="rgb(20,0,120)" stroke-linejoin="miter" stroke-linecap="square" stroke-miterlimit="3"/><path d=" M 76 94 C 76 88.312 80.33 84 86 84 L 116 84 C 122.048 84 126 89.203 126 94 L 126 304 L 176 304 L 176 264 C 176 258.215 180.792 254 186 254 L 216 254 C 222.154 254 226 258.572 226 264 L 226 304 L 266 304 C 272.073 304 276 308.224 276 314 L 276 344 C 276 349.585 271.538 354 266 354 L 226 354 L 226 394 C 226 399.504 222.243 404 216 404 L 186 404 C 180.703 404 176 399.504 176 394 L 176 354 L 86 354 C 79.973 354 76 349.585 76 344 L 76 94 Z " fill="none" vector-effect="non-scaling-stroke" stroke-width="5" stroke="rgb(20,0,120)" stroke-linejoin="miter" stroke-linecap="square" stroke-miterlimit="3"/></g></svg>