<svg id="Layer_2" data-name="Layer 2" xmlns="http://www.w3.org/2000/svg" viewBox="0 0 1440 1080"><defs><style>.cls-1{fill:#513f9e;}.cls-2{fill:#333;}.cls-3{fill:#32258e;}</style></defs><title>vp-logo-purple</title><polygon class="cls-1" points="720 1080 1440 0 864 0 720 216 576 0 360 0 612 378 540 486 216 0 0 0 540 810 972 162 1116 162 612 918 720 1080"/><path class="cls-2" d="M648,1296" transform="translate(-216 -648)"/><path class="cls-2" d="M936,864" transform="translate(-216 -648)"/><path class="cls-2" d="M1440,648" transform="translate(-216 -648)"/><path class="cls-2" d="M828,1566" transform="translate(-216 -648)"/><path class="cls-2" d="M1440,648" transform="translate(-216 -648)"/><path class="cls-2" d="M684,1566" transform="translate(-216 -648)"/><path class="cls-2" d="M1296,648" transform="translate(-216 -648)"/><polygon class="cls-3" points="612 378 468 162 576 0 720 216 612 378"/></svg>